<svg id="visual" viewBox="0 0 960 540" width="960" height="540" xmlns="http://www.w3.org/2000/svg" xmlns:xlink="http://www.w3.org/1999/xlink" version="1.1"><g><g transform="translate(5 34)"><path d="M0 -61.5L61.5 0L0 61.5L-61.5 0Z" fill="#e100bf"></path></g><g transform="translate(35 205)"><path d="M0 -18L18 0L0 18L-18 0Z" fill="#e100bf"></path></g><g transform="translate(659 278)"><path d="M0 -52L52 0L0 52L-52 0Z" fill="#e100bf"></path></g><g transform="translate(825 153)"><path d="M0 -7L7 0L0 7L-7 0Z" fill="#e100bf"></path></g><g transform="translate(684 473)"><path d="M0 -28L28 0L0 28L-28 0Z" fill="#e100bf"></path></g><g transform="translate(198 110)"><path d="M0 -45L45 0L0 45L-45 0Z" fill="#e100bf"></path></g><g transform="translate(71 335)"><path d="M0 -16L16 0L0 16L-16 0Z" fill="#e100bf"></path></g><g transform="translate(897 366)"><path d="M0 -19L19 0L0 19L-19 0Z" fill="#e100bf"></path></g><g transform="translate(926 59)"><path d="M0 -9L9 0L0 9L-9 0Z" fill="#e100bf"></path></g><g transform="translate(309 426)"><path d="M0 -33L33 0L0 33L-33 0Z" fill="#e100bf"></path></g><g transform="translate(524 361)"><path d="M0 -30L30 0L0 30L-30 0Z" fill="#e100bf"></path></g><g transform="translate(436 49)"><path d="M0 -54L54 0L0 54L-54 0Z" fill="#e100bf"></path></g><g transform="translate(479 220)"><path d="M0 -60L60 0L0 60L-60 0Z" fill="#e100bf"></path></g><g transform="translate(310 175)"><path d="M0 -21L21 0L0 21L-21 0Z" fill="#e100bf"></path></g><g transform="translate(906 524)"><path d="M0 -51L51 0L0 51L-51 0Z" fill="#e100bf"></path></g><g transform="translate(610 41)"><path d="M0 -55L55 0L0 55L-55 0Z" fill="#e100bf"></path></g><g transform="translate(201 519)"><path d="M0 -24L24 0L0 24L-24 0Z" fill="#e100bf"></path></g><g transform="translate(938 247)"><path d="M0 -14L14 0L0 14L-14 0Z" fill="#e100bf"></path></g><g transform="translate(231 296)"><path d="M0 -37L37 0L0 37L-37 0Z" fill="#e100bf"></path></g><g transform="translate(757 3)"><path d="M0 -48L48 0L0 48L-48 0Z" fill="#e100bf"></path></g><g transform="translate(433 509)"><path d="M0 -39L39 0L0 39L-39 0Z" fill="#e100bf"></path></g><g transform="translate(355 299)"><path d="M0 -21L21 0L0 21L-21 0Z" fill="#e100bf"></path></g><g transform="translate(698 156)"><path d="M0 -54L54 0L0 54L-54 0Z" fill="#e100bf"></path></g><g transform="translate(565 534)"><path d="M0 -34L34 0L0 34L-34 0Z" fill="#e100bf"></path></g><g transform="translate(72 527)"><path d="M0 -35L35 0L0 35L-35 0Z" fill="#e100bf"></path></g><g transform="translate(318 1)"><path d="M0 -45L45 0L0 45L-45 0Z" fill="#e100bf"></path></g><g transform="translate(782 311)"><path d="M0 -36L36 0L0 36L-36 0Z" fill="#e100bf"></path></g></g></svg>